<svg viewBox="0 0 122.88 122.88" xmlns="http://www.w3.org/2000/svg">
  <path d="m61.44,0a61.31,61.31 0 0 1 23.48,4.66l0,0a61.66,61.66 0 0 1 33.29,33.34l0.1,0.24a61.39,61.39 0 0 1 -0.1,46.73l0,0a61.42,61.42 0 0 1 -80.21,33.24l0,0a61.3,61.3 0 0 1 -20,-13.33l0,0a61.5,61.5 0 0 1 -13.34,-19.94l-0.09,-0.24a61.48,61.48 0 0 1 0.09,-46.7l0,0a61.37,61.37 0 0 1 13.34,-20l0,0a61.5,61.5 0 0 1 19.94,-13.34l0.24,-0.09a61.35,61.35 0 0 1 23.26,-4.57zm-12.66,79.89a16.44,16.44 0 0 1 -1.34,-1.62c-2.6,-3.56 -4.93,-7.58 -7.27,-11.33c-1.7,-2.5 -2.59,-4.73 -2.59,-6.52s1,-4.13 3,-4.64a101,101 0 0 1 -0.18,-11.73a16.86,16.86 0 0 1 0.6,-2.94a17,17 0 0 1 7.58,-9.64a19.26,19.26 0 0 1 4.11,-2c2.59,-1 1.34,-4.91 4.19,-5c6.66,-0.14 17.64,5.53 21.92,10.21a16.91,16.91 0 0 1 4.38,11l-0.27,10.57a3.31,3.31 0 0 1 2.41,2.41c0.36,1.43 0,3.39 -1.25,6.16l0,0c0,0.09 -0.09,0.09 -0.09,0.18c-2.75,4.53 -5.62,9.78 -8.78,14c-1.59,2.12 -2.9,1.75 -1.54,3.78c6.45,8.87 19.18,7.64 27,13.55a52.66,52.66 0 0 0 9.36,-54.72l-0.09,-0.2a52.7,52.7 0 0 0 -11.38,-17.08l0,0a52.63,52.63 0 0 0 -57,-11.49l-0.21,0.09a52.53,52.53 0 0 0 -17,11.4l0,0a52.63,52.63 0 0 0 -11.49,57l0.09,0.21a52.66,52.66 0 0 0 9.25,14.76c7.85,-5.91 20.58,-4.68 27,-13.55c1.12,-1.68 0.83,-1.52 -0.44,-2.86l0.03,0z"/>
</svg>